Coordinates
version=1
nRows=7
nColumns=46
inDegrees=yes

Units are S.I. units (second, meters, Newtons, ...)
Angles are in degrees.

endheader
time	pelvis_tilt	pelvis_list	pelvis_rotation	pelvis_tx	pelvis_ty	pelvis_tz	bb_angle	bb_tx	bb_ty	bb_tz	hip_flexion_r	hip_adduction_r	hip_rotation_r	knee_angle_r	knee_angle_r_beta	ankle_angle_r	subtalar_angle_r	mtp_angle_r	crank_angle_r	hip_flexion_l	hip_adduction_l	hip_rotation_l	knee_angle_l	knee_angle_l_beta	ankle_angle_l	subtalar_angle_l	mtp_angle_l	crank_angle_l	lumbar_extension	lumbar_bending	lumbar_rotation	arm_flex_r	arm_add_r	arm_rot_r	elbow_flex_r	pro_sup_r	wrist_flex_r	wrist_dev_r	arm_flex_l	arm_add_l	arm_rot_l	elbow_flex_l	pro_sup_l	wrist_flex_l	wrist_dev_l
      2.50500000	    -26.92369173	     -0.95408063	     30.53889503	      0.39608432	      1.06961007	     -0.22685361	      0.00000000	      0.50000000	      0.00000000	      0.25000000	     37.84436112	    -12.52395041	     -7.31280487	     57.01370528	      0.99507688	    -32.68167293	    -13.80392125	      0.00000000	      0.00000000	     76.06427927	      8.26637504	      2.61276891	     88.13969162	      1.53832782	     28.32943852	     18.44977411	      0.00000000	      0.00000000	    -52.17096236	      0.29910382	    -34.58700047	     59.15778031	     10.34870518	     15.21918818	     25.70955621	     43.38636951	      0.00000000	      0.00000000	     40.94362496	    -20.93107635	      4.81892394	    100.47505743	     49.47685396	      0.00000000	      0.00000000
      2.51000000	    -26.82479677	     -1.03281302	     29.84043718	      0.39562420	      1.06789179	     -0.22736902	      0.00000000	      0.50000000	      0.00000000	      0.25000000	     38.29284037	    -12.18905918	     -7.09442607	     58.56251901	      1.02210878	    -31.51598451	    -13.81487632	      0.00000000	      0.00000000	     75.74724200	      7.92563856	      2.57137903	     87.30575564	      1.52377289	     28.24523470	     17.93092987	      0.00000000	      0.00000000	    -52.14813760	      0.29524304	    -35.07742093	     59.54577830	     11.05858252	     15.83962232	     25.51736508	     43.67237462	      0.00000000	      0.00000000	     39.46217200	    -22.06519707	      3.41677709	    102.49331477	     49.68057390	      0.00000000	      0.00000000
      2.51500000	    -26.68716937	     -0.95148045	     29.08459503	      0.39523913	      1.06636472	     -0.22799330	      0.00000000	      0.50000000	      0.00000000	      0.25000000	     38.66159595	    -11.95532667	     -6.74788666	     60.10496749	      1.04902958	    -30.47793507	    -13.98597635	      0.00000000	      0.00000000	     75.25298467	      7.58918966	      2.36347437	     86.44542932	      1.50875736	     28.17113694	     17.29293818	      0.00000000	      0.00000000	    -52.15800294	     -0.01935865	    -34.89097025	     59.72086727	     11.10040098	     16.05928309	     25.45359252	     43.77023326	      0.00000000	      0.00000000	     39.00573743	    -22.42281619	      3.08910813	    103.03873728	     49.73797608	      0.00000000	      0.00000000
      2.52000000	    -26.34748289	     -0.95018196	     28.40898298	      0.39490375	      1.06493613	     -0.22877869	      0.00000000	      0.50000000	      0.00000000	      0.25000000	     38.78834582	    -11.65499169	     -6.69683952	     61.58483806	      1.07485819	    -29.62616643	    -14.50888365	      0.00000000	      0.00000000	     74.59433047	      7.29673950	      2.41163768	     85.60156288	      1.49402912	     28.16603647	     16.87888863	      0.00000000	      0.00000000	    -52.32120589	     -0.11127632	    -34.50321052	     59.89201890	     11.02638981	     16.09871683	     25.50798270	     43.79560952	      0.00000000	      0.00000000	     38.69420442	    -22.58140155	      2.90181110	    103.23708264	     49.75448597	      0.00000000	      0.00000000
      2.52500000	    -25.99483083	     -0.60282722	     27.42143360	      0.39543878	      1.06363790	     -0.22930623	      0.00000000	      0.50000000	      0.00000000	      0.25000000	     38.81298173	    -11.45673070	     -6.27522663	     63.13821307	      1.10196970	    -28.48828167	    -14.78942931	      0.00000000	      0.00000000	     73.59527406	      7.10759783	      2.51054033	     84.73332673	      1.47887554	     28.28446898	     15.81204468	      0.00000000	      0.00000000	    -52.82315973	     -0.53503177	    -35.13862516	     60.06679693	     11.56232172	     17.16500457	     25.85989801	     44.22072868	      0.00000000	      0.00000000	     36.71598204	    -23.72613244	      1.10782808	    105.87355033	     50.00211034	      0.00000000	      0.00000000
      2.53000000	    -25.70205068	     -0.39591219	     26.50707264	      0.39538230	      1.06222398	     -0.23019116	      0.00000000	      0.50000000	      0.00000000	      0.25000000	     38.99956112	    -11.27604491	     -5.94401199	     64.73880115	      1.12990523	    -27.51516891	    -15.13267099	      0.00000000	      0.00000000	     72.75265549	      6.79986870	      2.52046748	     83.87435876	      1.46388372	     28.32153196	     15.29151740	      0.00000000	      0.00000000	    -53.09504201	     -0.93858121	    -34.91383663	     60.25871575	     11.51401805	     17.44543123	     25.84383575	     44.31227902	      0.00000000	      0.00000000	     36.43013917	    -23.88677938	      0.81172160	    106.33128264	     50.04156391	      0.00000000	      0.00000000
      2.53500000	    -25.54942197	     -0.34896419	     25.72630876	      0.39486459	      1.06060838	     -0.23107516	      0.00000000	      0.50000000	      0.00000000	      0.25000000	     39.42248371	    -11.08840587	     -5.64183691	     66.42203727	      1.15928325	    -26.13657545	    -14.97070394	      0.00000000	      0.00000000	     72.10134986	      6.47527152	      2.37958369	     83.02194099	      1.44900622	     28.41917001	     14.61090187	      0.00000000	      0.00000000	    -53.13341171	     -1.08494818	    -34.82320155	     60.45376022	     11.50948659	     18.01344515	     26.02865893	     44.52053710	      0.00000000	      0.00000000	     35.75855049	    -24.23137143	      0.28189261	    107.12099144	     50.11100327	      0.00000000	      0.00000000
